<svg width="29" height="19" viewBox="0 0 29 19" fill="none" xmlns="http://www.w3.org/2000/svg">
<path d="M25.746 8.67857C26.3061 9.16869 26.3061 9.83163 25.746 10.3218C23.9822 11.8647 19.751 15.0418 14.8114 15.0418C9.87196 15.0418 5.64063 11.8647 3.87695 10.3218C3.31674 9.83163 3.31673 9.16869 3.87693 8.67857C5.64063 7.13562 9.87196 3.9585 14.8114 3.9585C19.751 3.9585 23.9822 7.13562 25.746 8.67857Z" stroke="#5E5E5E" stroke-width="2" stroke-linecap="round" stroke-linejoin="round"/>
<path d="M14.8114 11.875C16.7685 11.875 18.355 10.8117 18.355 9.5C18.355 8.18832 16.7685 7.125 14.8114 7.125C12.8543 7.125 11.2678 8.18832 11.2678 9.5C11.2678 10.8117 12.8543 11.875 14.8114 11.875Z" stroke="#5E5E5E" stroke-width="2" stroke-linecap="round" stroke-linejoin="round"/>
</svg>
