<svg width="40" height="40" viewBox="0 0 40 40" fill="none" xmlns="http://www.w3.org/2000/svg">
<path fill-rule="evenodd" clip-rule="evenodd" d="M27.7778 24.4444H26L25.3333 23.7778C27.5556 21.3333 28.8889 18 28.8889 14.4444C28.8889 6.44444 22.4444 0 14.4444 0C6.44444 0 0 6.44444 0 14.4444C0 22.4444 6.44444 28.8889 14.4444 28.8889C18 28.8889 21.3333 27.5556 23.7778 25.3333L24.4444 26V27.7778L35.5556 38.8889L38.8889 35.5556L27.7778 24.4444ZM14.4444 24.4444C8.88889 24.4444 4.44444 20 4.44444 14.4444C4.44444 8.88889 8.88889 4.44444 14.4444 4.44444C20 4.44444 24.4444 8.88889 24.4444 14.4444C24.4444 20 20 24.4444 14.4444 24.4444Z" fill="white"/>
</svg>
