<svg width="189" height="109" viewBox="0 0 189 109" fill="none" xmlns="http://www.w3.org/2000/svg">
<path d="M25.2683 65.6H28.7883V74.72H32.5643V65.6H36.0843V88H32.5643V77.92H28.7883V88H25.2683V65.6ZM43.0258 65.6H47.7938L51.4418 88H47.9218L47.2818 83.552V83.616H43.2818L42.6418 88H39.3778L43.0258 65.6ZM46.8658 80.576L45.2978 69.504H45.2338L43.6978 80.576H46.8658ZM54.7495 65.6H59.9655C61.7788 65.6 63.1015 66.0267 63.9335 66.88C64.7655 67.712 65.1815 69.0027 65.1815 70.752V72.128C65.1815 74.4533 64.4135 75.9253 62.8775 76.544V76.608C63.7308 76.864 64.3282 77.3867 64.6695 78.176C65.0322 78.9653 65.2135 80.0213 65.2135 81.344V85.28C65.2135 85.92 65.2348 86.4427 65.2775 86.848C65.3202 87.232 65.4268 87.616 65.5975 88H62.0135C61.8855 87.6373 61.8002 87.296 61.7575 86.976C61.7148 86.656 61.6935 86.08 61.6935 85.248V81.152C61.6935 80.128 61.5228 79.4133 61.1815 79.008C60.8615 78.6027 60.2962 78.4 59.4855 78.4H58.2695V88H54.7495V65.6ZM59.5495 75.2C60.2535 75.2 60.7762 75.0187 61.1175 74.656C61.4802 74.2933 61.6615 73.6853 61.6615 72.832V71.104C61.6615 70.2933 61.5122 69.7067 61.2135 69.344C60.9362 68.9813 60.4882 68.8 59.8695 68.8H58.2695V75.2H59.5495ZM74.3438 88.32C72.6158 88.32 71.2931 87.8293 70.3758 86.848C69.4584 85.8667 68.9998 84.48 68.9998 82.688V70.912C68.9998 69.12 69.4584 67.7333 70.3758 66.752C71.2931 65.7707 72.6158 65.28 74.3438 65.28C76.0718 65.28 77.3944 65.7707 78.3118 66.752C79.2291 67.7333 79.6878 69.12 79.6878 70.912V82.688C79.6878 84.48 79.2291 85.8667 78.3118 86.848C77.3944 87.8293 76.0718 88.32 74.3438 88.32ZM74.3438 85.12C75.5598 85.12 76.1678 84.384 76.1678 82.912V70.688C76.1678 69.216 75.5598 68.48 74.3438 68.48C73.1278 68.48 72.5198 69.216 72.5198 70.688V82.912C72.5198 84.384 73.1278 85.12 74.3438 85.12ZM83.6683 65.6H88.0843L91.5083 79.008H91.5723V65.6H94.7083V88H91.0923L86.8683 71.648H86.8043V88H83.6683V65.6ZM98.9245 84.608H102.317V88H98.9245V84.608ZM106.556 65.6H110.972L114.396 79.008H114.46V65.6H117.596V88H113.98L109.756 71.648H109.692V88H106.556V65.6ZM121.812 65.6H131.412V68.8H125.332V74.72H130.164V77.92H125.332V84.8H131.412V88H121.812V65.6ZM134.205 65.6H137.597L139.165 82.816H139.229L140.893 65.6H144.733L146.397 82.816H146.461L148.029 65.6H151.069L148.797 88H144.413L142.813 72.896H142.749L141.149 88H136.477L134.205 65.6ZM159.025 88.32C157.319 88.32 156.028 87.84 155.153 86.88C154.279 85.8987 153.841 84.5013 153.841 82.688V81.408H157.169V82.944C157.169 84.3947 157.777 85.12 158.993 85.12C159.591 85.12 160.039 84.9493 160.337 84.608C160.657 84.2453 160.817 83.6693 160.817 82.88C160.817 81.9413 160.604 81.12 160.177 80.416C159.751 79.6907 158.961 78.8267 157.809 77.824C156.359 76.544 155.345 75.392 154.769 74.368C154.193 73.3227 153.905 72.1493 153.905 70.848C153.905 69.0773 154.353 67.712 155.249 66.752C156.145 65.7707 157.447 65.28 159.153 65.28C160.839 65.28 162.108 65.7707 162.961 66.752C163.836 67.712 164.273 69.0987 164.273 70.912V71.84H160.945V70.688C160.945 69.92 160.796 69.3653 160.497 69.024C160.199 68.6613 159.761 68.48 159.185 68.48C158.012 68.48 157.425 69.1947 157.425 70.624C157.425 71.4347 157.639 72.192 158.065 72.896C158.513 73.6 159.313 74.4533 160.465 75.456C161.937 76.736 162.951 77.8987 163.505 78.944C164.06 79.9893 164.337 81.216 164.337 82.624C164.337 84.4587 163.879 85.8667 162.961 86.848C162.065 87.8293 160.753 88.32 159.025 88.32Z" fill="white"/>
<path d="M91.4199 35.2977C91.3818 35.2731 91.3409 35.2522 91.2979 35.2354C91.3369 35.2485 91.374 35.266 91.4083 35.2874L91.4199 35.2977Z" fill="white"/>
<path d="M92.4429 37.6584C92.419 37.6277 92.3995 37.5945 92.3848 37.5596C92.4006 37.5941 92.42 37.6272 92.4429 37.6584Z" fill="white"/>
<path d="M93.9539 37.5493C93.9391 37.5843 93.9196 37.6175 93.8958 37.6481C93.9186 37.6169 93.938 37.5838 93.9539 37.5493Z" fill="white"/>
<path d="M92.4429 37.6584C92.419 37.6277 92.3995 37.5945 92.3848 37.5596C92.4006 37.5941 92.42 37.6272 92.4429 37.6584Z" fill="white"/>
<path d="M93.9539 37.5493C93.9391 37.5843 93.9196 37.6175 93.8958 37.6481C93.9186 37.6169 93.938 37.5838 93.9539 37.5493Z" fill="white"/>
<path d="M93.9539 37.5493C93.9391 37.5843 93.9196 37.6175 93.8958 37.6481C93.9186 37.6169 93.938 37.5838 93.9539 37.5493Z" fill="white"/>
<path d="M117.735 14.6118H117.672V14.2686C117.672 12.745 116.067 11.5126 114.097 11.5126H113.516V10.5766C113.516 9.84553 113.194 9.14392 112.619 8.62406C112.045 8.1042 111.265 7.80802 110.448 7.7998H98.9809C97.7992 7.8008 96.6389 8.08186 95.6181 8.61436C94.5972 9.14687 93.7523 9.91183 93.1691 10.8314C92.5865 9.91147 91.7416 9.14622 90.7206 8.61366C89.6997 8.0811 88.5392 7.80027 87.3574 7.7998H75.8791C75.0571 7.80118 74.2692 8.09435 73.6884 8.61495C73.1076 9.13555 72.7815 9.84105 72.7815 10.5766V11.5126H72.2293C70.2592 11.5126 68.6551 12.745 68.6551 14.2686V14.6118H68.5912C66.3188 14.6118 64.5229 15.839 64.5229 17.4094V41.527C64.5229 42.8114 65.9526 43.815 67.7833 43.815H88.9324L89.7634 46.3162C89.8165 46.4777 89.9268 46.6194 90.0778 46.7197C90.2288 46.8201 90.4122 46.8738 90.6003 46.8726H95.7263C95.9114 46.8704 96.0909 46.8152 96.2384 46.7151C96.3859 46.6149 96.4936 46.4752 96.5458 46.3162L97.3769 43.815H118.532C120.357 43.815 121.786 42.8114 121.786 41.527V17.4094C121.786 15.839 120.008 14.6118 117.735 14.6118ZM94.0351 13.7798C94.0382 12.6075 94.5604 11.4841 95.4874 10.6556C96.4145 9.82713 97.6707 9.36118 98.9809 9.3598H110.448C110.626 9.3598 110.802 9.39131 110.967 9.45253C111.132 9.51374 111.281 9.60345 111.407 9.71651C111.533 9.82957 111.633 9.96375 111.7 10.1113C111.768 10.2589 111.802 10.4171 111.802 10.5766V34.4446C111.802 34.5386 111.782 34.6318 111.743 34.7188C111.703 34.8059 111.645 34.885 111.571 34.9517C111.497 35.0184 111.408 35.0714 111.311 35.1075C111.215 35.1436 111.11 35.1622 111.005 35.1622H95.3834C95.2164 35.1626 95.053 35.2059 94.9127 35.287L94.0409 35.807L94.0351 13.7798ZM94.0351 37.653L95.6508 36.7222H111.005C111.68 36.7208 112.326 36.4803 112.802 36.0533C113.278 35.6263 113.545 35.0478 113.545 34.4446V13.0726H114.126C115.12 13.0726 115.957 13.6186 115.957 14.2686V37.8974C115.957 38.2666 115.417 38.5942 114.795 38.5942H95.8135C95.7483 38.597 95.6838 38.6075 95.6217 38.6254H95.5403C95.5122 38.6336 95.485 38.644 95.459 38.6566L95.3776 38.6982L94.0351 39.3274V37.653ZM93.9537 37.549C93.939 37.584 93.9195 37.6172 93.8956 37.6478C93.9184 37.6166 93.9379 37.5835 93.9537 37.549ZM93.3725 37.9806H93.419H93.39H93.3725ZM92.4659 37.6582C92.4421 37.6276 92.4225 37.5944 92.4078 37.5594C92.4161 37.5932 92.4278 37.6263 92.4427 37.6582H92.4659ZM74.525 10.5766C74.525 10.2548 74.6675 9.94608 74.9213 9.71803C75.175 9.48999 75.5195 9.36118 75.8791 9.3598H87.3574C88.6661 9.36256 89.9202 9.82928 90.845 10.6577C91.7699 11.4862 92.29 12.6089 92.2916 13.7798V35.7966L91.4198 35.2766C91.3817 35.252 91.3408 35.231 91.2977 35.2142C91.2571 35.1959 91.2142 35.1819 91.1699 35.1726C91.1314 35.1672 91.0922 35.1672 91.0537 35.1726C91.0132 35.1675 90.9721 35.1675 90.9316 35.1726H75.327C75.1143 35.1726 74.9103 35.097 74.7599 34.9624C74.6095 34.8279 74.525 34.6453 74.525 34.455V10.5766ZM70.3928 14.2686C70.3928 13.6186 71.2297 13.0726 72.2235 13.0726H72.7757V34.4446C72.7757 35.0487 73.0438 35.628 73.5212 36.0551C73.9986 36.4823 74.6461 36.7222 75.3212 36.7222H90.6759L92.2916 37.653V39.3586L90.949 38.7294L90.8677 38.6878C90.8049 38.6585 90.7386 38.6359 90.6701 38.6202H90.5655C90.5308 38.6151 90.4955 38.6151 90.4609 38.6202H71.5552C70.9391 38.6202 70.3928 38.2926 70.3928 37.9234V14.2686ZM120.043 41.527C120.043 41.8234 119.462 42.255 118.532 42.255H96.7434C96.7205 42.2499 96.6965 42.2499 96.6736 42.255H96.5981L96.4644 42.2862L96.3424 42.333C96.3005 42.3488 96.2613 42.3698 96.2261 42.3954C96.1892 42.4171 96.156 42.4433 96.1273 42.4734C96.0972 42.4992 96.0717 42.5291 96.0518 42.5618C96.0242 42.5959 96.0008 42.6325 95.982 42.671C95.9775 42.681 95.9775 42.6922 95.982 42.7022C95.9643 42.7332 95.9525 42.7666 95.9472 42.801L95.1335 45.2346H91.2513L90.4376 42.801V42.7386C90.4304 42.7169 90.4207 42.696 90.4085 42.6762C90.4131 42.6662 90.4131 42.655 90.4085 42.645C90.3894 42.6023 90.364 42.5621 90.333 42.5254C90.3087 42.4848 90.2773 42.4479 90.24 42.4162H90.2109C90.1806 42.3908 90.1475 42.3682 90.1121 42.3486C90.0782 42.3226 90.0386 42.3031 89.9959 42.2914C89.9634 42.2733 89.9282 42.2593 89.8913 42.2498C89.8486 42.2339 89.8036 42.2234 89.7576 42.2186H89.6821C89.6592 42.2135 89.6352 42.2135 89.6123 42.2186H67.8008C66.8767 42.2186 66.2839 41.787 66.2839 41.4906V17.4094C66.2839 16.827 67.2312 16.1718 68.6086 16.1718H68.6493V37.8974C68.6493 39.1402 69.9511 40.1542 71.5552 40.1542H90.2458L92.6577 41.2826H92.6868C92.7448 41.3143 92.8074 41.3387 92.8727 41.3554H92.9541H92.989H93.1285H93.2505H93.2912H93.3377C93.382 41.3488 93.4251 41.3365 93.4655 41.319C93.4787 41.323 93.493 41.323 93.5062 41.319L93.5876 41.2774L96.0227 40.1386H114.771C116.37 40.1386 117.677 39.0986 117.677 37.8818V16.1718H117.741C119.101 16.1718 120.066 16.827 120.066 17.4094L120.043 41.527Z" fill="white"/>
<path d="M93.9539 37.5493C93.9391 37.5843 93.9196 37.6175 93.8958 37.6481C93.9186 37.6169 93.938 37.5838 93.9539 37.5493Z" fill="white"/>
<path d="M92.4429 37.6584C92.419 37.6277 92.3995 37.5945 92.3848 37.5596C92.4006 37.5941 92.42 37.6272 92.4429 37.6584Z" fill="white"/>
<path d="M93.9539 37.5493C93.9391 37.5843 93.9196 37.6175 93.8958 37.6481C93.9186 37.6169 93.938 37.5838 93.9539 37.5493Z" fill="white"/>
<path d="M88.5489 15.4545H78.3957C78.1645 15.4545 77.9427 15.3724 77.7793 15.2261C77.6158 15.0798 77.5239 14.8814 77.5239 14.6745C77.5239 14.4677 77.6158 14.2693 77.7793 14.123C77.9427 13.9767 78.1645 13.8945 78.3957 13.8945H88.5489C88.7801 13.8945 89.0018 13.9767 89.1653 14.123C89.3288 14.2693 89.4206 14.4677 89.4206 14.6745C89.4206 14.8814 89.3288 15.0798 89.1653 15.2261C89.0018 15.3724 88.7801 15.4545 88.5489 15.4545Z" fill="white"/>
<path d="M88.5489 18.9438H78.3957C78.1645 18.9438 77.9427 18.8616 77.7793 18.7153C77.6158 18.5691 77.5239 18.3707 77.5239 18.1638C77.5239 17.9569 77.6158 17.7585 77.7793 17.6122C77.9427 17.466 78.1645 17.3838 78.3957 17.3838H88.5489C88.7801 17.3838 89.0018 17.466 89.1653 17.6122C89.3288 17.7585 89.4206 17.9569 89.4206 18.1638C89.4206 18.3707 89.3288 18.5691 89.1653 18.7153C89.0018 18.8616 88.7801 18.9438 88.5489 18.9438Z" fill="white"/>
<path d="M88.5489 22.4379H78.3957C78.1645 22.4379 77.9427 22.3558 77.7793 22.2095C77.6158 22.0632 77.5239 21.8648 77.5239 21.6579C77.5239 21.4511 77.6158 21.2527 77.7793 21.1064C77.9427 20.9601 78.1645 20.8779 78.3957 20.8779H88.5489C88.7801 20.8779 89.0018 20.9601 89.1653 21.1064C89.3288 21.2527 89.4206 21.4511 89.4206 21.6579C89.4206 21.8648 89.3288 22.0632 89.1653 22.2095C89.0018 22.3558 88.7801 22.4379 88.5489 22.4379Z" fill="white"/>
<path d="M88.5489 30.6331H78.3957C78.1645 30.6331 77.9427 30.5509 77.7793 30.4046C77.6158 30.2583 77.5239 30.0599 77.5239 29.8531V25.1731C77.5239 24.9662 77.6158 24.7678 77.7793 24.6215C77.9427 24.4752 78.1645 24.3931 78.3957 24.3931H88.5489C88.7801 24.3931 89.0018 24.4752 89.1653 24.6215C89.3288 24.7678 89.4206 24.9662 89.4206 25.1731V29.8531C89.4206 30.0599 89.3288 30.2583 89.1653 30.4046C89.0018 30.5509 88.7801 30.6331 88.5489 30.6331ZM79.25 29.0731H87.6771V25.9531H79.2675L79.25 29.0731Z" fill="white"/>
<path d="M107.995 15.4545H97.842C97.6108 15.4545 97.389 15.3724 97.2255 15.2261C97.0621 15.0798 96.9702 14.8814 96.9702 14.6745C96.9702 14.4677 97.0621 14.2693 97.2255 14.123C97.389 13.9767 97.6108 13.8945 97.842 13.8945H107.995C108.226 13.8945 108.448 13.9767 108.612 14.123C108.775 14.2693 108.867 14.4677 108.867 14.6745C108.867 14.8814 108.775 15.0798 108.612 15.2261C108.448 15.3724 108.226 15.4545 107.995 15.4545Z" fill="white"/>
<path d="M107.995 18.9438H97.842C97.6108 18.9438 97.389 18.8616 97.2255 18.7153C97.0621 18.5691 96.9702 18.3707 96.9702 18.1638C96.9702 17.9569 97.0621 17.7585 97.2255 17.6122C97.389 17.466 97.6108 17.3838 97.842 17.3838H107.995C108.226 17.3838 108.448 17.466 108.612 17.6122C108.775 17.7585 108.867 17.9569 108.867 18.1638C108.867 18.3707 108.775 18.5691 108.612 18.7153C108.448 18.8616 108.226 18.9438 107.995 18.9438Z" fill="white"/>
<path d="M107.995 22.4379H97.842C97.6108 22.4379 97.389 22.3558 97.2255 22.2095C97.0621 22.0632 96.9702 21.8648 96.9702 21.6579C96.9702 21.4511 97.0621 21.2527 97.2255 21.1064C97.389 20.9601 97.6108 20.8779 97.842 20.8779H107.995C108.226 20.8779 108.448 20.9601 108.612 21.1064C108.775 21.2527 108.867 21.4511 108.867 21.6579C108.867 21.8648 108.775 22.0632 108.612 22.2095C108.448 22.3558 108.226 22.4379 107.995 22.4379Z" fill="white"/>
<path d="M107.995 30.6331H97.842C97.6108 30.6331 97.389 30.5509 97.2255 30.4046C97.0621 30.2583 96.9702 30.0599 96.9702 29.8531V25.1731C96.9702 24.9662 97.0621 24.7678 97.2255 24.6215C97.389 24.4752 97.6108 24.3931 97.842 24.3931H107.995C108.226 24.3931 108.448 24.4752 108.612 24.6215C108.775 24.7678 108.867 24.9662 108.867 25.1731V29.8531C108.867 30.0599 108.775 30.2583 108.612 30.4046C108.448 30.5509 108.226 30.6331 107.995 30.6331ZM98.6963 29.0731H107.123V25.9531H98.7137L98.6963 29.0731Z" fill="white"/>
<path d="M95.924 42.7803C95.9063 42.8112 95.8945 42.8446 95.8892 42.8791V42.8167L95.924 42.7803Z" fill="white"/>
</svg>
