<svg width="253" height="62" viewBox="0 0 253 62" fill="none" xmlns="http://www.w3.org/2000/svg">
<path d="M84.6512 18.4909H88.6112V28.7509H92.8592V18.4909H96.8192V43.6909H92.8592V32.3509H88.6112V43.6909H84.6512V18.4909ZM104.628 18.4909H109.992L114.096 43.6909H110.136L109.416 38.6869V38.7589H104.916L104.196 43.6909H100.524L104.628 18.4909ZM108.948 35.3389L107.184 22.8829H107.112L105.384 35.3389H108.948ZM117.818 18.4909H123.686C125.726 18.4909 127.214 18.9709 128.15 19.9309C129.086 20.8669 129.554 22.3189 129.554 24.2869V25.8349C129.554 28.4509 128.69 30.1069 126.962 30.8029V30.8749C127.922 31.1629 128.594 31.7509 128.978 32.6389C129.386 33.5269 129.59 34.7149 129.59 36.2029V40.6309C129.59 41.3509 129.614 41.9389 129.662 42.3949C129.71 42.8269 129.83 43.2589 130.022 43.6909H125.99C125.846 43.2829 125.75 42.8989 125.702 42.5389C125.654 42.1789 125.63 41.5309 125.63 40.5949V35.9869C125.63 34.8349 125.438 34.0309 125.054 33.5749C124.694 33.1189 124.058 32.8909 123.146 32.8909H121.778V43.6909H117.818V18.4909ZM123.218 29.2909C124.01 29.2909 124.598 29.0869 124.982 28.6789C125.39 28.2709 125.594 27.5869 125.594 26.6269V24.6829C125.594 23.7709 125.426 23.1109 125.09 22.7029C124.778 22.2949 124.274 22.0909 123.578 22.0909H121.778V29.2909H123.218ZM139.861 44.0509C137.917 44.0509 136.429 43.4989 135.397 42.3949C134.365 41.2909 133.849 39.7309 133.849 37.7149V24.4669C133.849 22.4509 134.365 20.8909 135.397 19.7869C136.429 18.6829 137.917 18.1309 139.861 18.1309C141.805 18.1309 143.293 18.6829 144.325 19.7869C145.357 20.8909 145.873 22.4509 145.873 24.4669V37.7149C145.873 39.7309 145.357 41.2909 144.325 42.3949C143.293 43.4989 141.805 44.0509 139.861 44.0509ZM139.861 40.4509C141.229 40.4509 141.913 39.6229 141.913 37.9669V24.2149C141.913 22.5589 141.229 21.7309 139.861 21.7309C138.493 21.7309 137.809 22.5589 137.809 24.2149V37.9669C137.809 39.6229 138.493 40.4509 139.861 40.4509ZM150.351 18.4909H155.319L159.171 33.5749H159.243V18.4909H162.771V43.6909H158.703L153.951 25.2949H153.879V43.6909H150.351V18.4909ZM167.514 39.8749H171.33V43.6909H167.514V39.8749ZM176.1 18.4909H181.068L184.92 33.5749H184.992V18.4909H188.52V43.6909H184.452L179.7 25.2949H179.628V43.6909H176.1V18.4909ZM193.263 18.4909H204.063V22.0909H197.223V28.7509H202.659V32.3509H197.223V40.0909H204.063V43.6909H193.263V18.4909ZM207.205 18.4909H211.021L212.785 37.8589H212.857L214.729 18.4909H219.049L220.921 37.8589H220.993L222.757 18.4909H226.177L223.621 43.6909H218.689L216.889 26.6989H216.817L215.017 43.6909H209.761L207.205 18.4909ZM235.128 44.0509C233.208 44.0509 231.756 43.5109 230.772 42.4309C229.788 41.3269 229.296 39.7549 229.296 37.7149V36.2749H233.04V38.0029C233.04 39.6349 233.724 40.4509 235.092 40.4509C235.764 40.4509 236.268 40.2589 236.604 39.8749C236.964 39.4669 237.144 38.8189 237.144 37.9309C237.144 36.8749 236.904 35.9509 236.424 35.1589C235.944 34.3429 235.056 33.3709 233.76 32.2429C232.128 30.8029 230.988 29.5069 230.34 28.3549C229.692 27.1789 229.368 25.8589 229.368 24.3949C229.368 22.4029 229.872 20.8669 230.88 19.7869C231.888 18.6829 233.352 18.1309 235.272 18.1309C237.168 18.1309 238.596 18.6829 239.556 19.7869C240.54 20.8669 241.032 22.4269 241.032 24.4669V25.5109H237.288V24.2149C237.288 23.3509 237.12 22.7269 236.784 22.3429C236.448 21.9349 235.956 21.7309 235.308 21.7309C233.988 21.7309 233.328 22.5349 233.328 24.1429C233.328 25.0549 233.568 25.9069 234.048 26.6989C234.552 27.4909 235.452 28.4509 236.748 29.5789C238.404 31.0189 239.544 32.3269 240.168 33.5029C240.792 34.6789 241.104 36.0589 241.104 37.6429C241.104 39.7069 240.588 41.2909 239.556 42.3949C238.548 43.4989 237.072 44.0509 235.128 44.0509Z" fill="white"/>
<path d="M32.1656 41.4067C32.121 41.3778 32.073 41.3532 32.0225 41.3335C32.0683 41.349 32.1118 41.3695 32.152 41.3945L32.1656 41.4067Z" fill="white"/>
<path d="M33.3655 44.1762C33.3376 44.1402 33.3147 44.1013 33.2974 44.0603C33.3159 44.1008 33.3388 44.1396 33.3655 44.1762Z" fill="white"/>
<path d="M35.1382 44.0481C35.121 44.0891 35.0981 44.128 35.0701 44.164C35.0969 44.1274 35.1197 44.0886 35.1382 44.0481Z" fill="white"/>
<path d="M33.3655 44.1762C33.3376 44.1402 33.3147 44.1013 33.2974 44.0603C33.3159 44.1008 33.3388 44.1396 33.3655 44.1762Z" fill="white"/>
<path d="M35.1382 44.0481C35.121 44.0891 35.0981 44.128 35.0701 44.164C35.0969 44.1274 35.1197 44.0886 35.1382 44.0481Z" fill="white"/>
<path d="M35.1382 44.0481C35.121 44.0891 35.0981 44.128 35.0701 44.164C35.0969 44.1274 35.1197 44.0886 35.1382 44.0481Z" fill="white"/>
<path d="M63.0359 17.1409H62.9609V16.7383C62.9609 14.951 61.0792 13.5053 58.768 13.5053H58.0862V12.4073C58.0863 11.5497 57.7084 10.7267 57.0344 10.1168C56.3605 9.50698 55.445 9.15954 54.4865 9.1499H41.0353C39.6491 9.15107 38.288 9.48077 37.0905 10.1054C35.893 10.7301 34.9017 11.6275 34.2177 12.7062C33.5342 11.627 32.5431 10.7293 31.3454 10.1046C30.1477 9.47988 28.7864 9.15045 27.4 9.1499H13.9352C12.9708 9.15152 12.0466 9.49542 11.3653 10.1061C10.684 10.7168 10.3014 11.5444 10.3014 12.4073V13.5053H9.65372C7.34254 13.5053 5.46087 14.951 5.46087 16.7383V17.1409H5.38588C2.72018 17.1409 0.613525 18.5805 0.613525 20.4227V48.7145C0.613525 50.2212 2.29067 51.3985 4.43822 51.3985H29.2476L30.2225 54.3326C30.2847 54.522 30.4142 54.6882 30.5913 54.806C30.7684 54.9237 30.9836 54.9867 31.2043 54.9853H37.2174C37.4346 54.9827 37.6451 54.918 37.8182 54.8005C37.9912 54.683 38.1175 54.5191 38.1787 54.3326L39.1537 51.3985H63.9699C66.1106 51.3985 67.7878 50.2212 67.7878 48.7145V20.4227C67.7878 18.5805 65.7016 17.1409 63.0359 17.1409ZM35.2335 16.1649C35.2371 14.7897 35.8498 13.4718 36.9372 12.5C38.0247 11.5281 39.4983 10.9815 41.0353 10.9799H54.4865C54.6957 10.9799 54.9028 11.0169 55.096 11.0887C55.2892 11.1605 55.4646 11.2657 55.6122 11.3983C55.7598 11.531 55.8767 11.6884 55.9561 11.8615C56.0355 12.0347 56.0759 12.2201 56.075 12.4073V40.4063C56.0759 40.5166 56.0524 40.6259 56.0059 40.728C55.9594 40.8301 55.8907 40.9229 55.8039 41.0012C55.7171 41.0794 55.6138 41.1415 55.5 41.1839C55.3863 41.2263 55.2643 41.2481 55.141 41.2481H36.8152C36.6193 41.2486 36.4276 41.2994 36.263 41.3945L35.2403 42.0045L35.2335 16.1649ZM35.2335 44.17L37.1288 43.0781H55.141C55.9318 43.0765 56.6896 42.7943 57.2481 42.2934C57.8067 41.7925 58.1203 41.1139 58.1203 40.4063V15.3353H58.8021C59.9679 15.3353 60.9497 15.9758 60.9497 16.7383V44.4567C60.9497 44.8898 60.3156 45.2741 59.5861 45.2741H37.3197C37.2432 45.2774 37.1676 45.2897 37.0947 45.3107H36.9993C36.9663 45.3203 36.9343 45.3325 36.9038 45.3473L36.8084 45.3961L35.2335 46.1342V44.17ZM35.1381 44.048C35.1208 44.089 35.0979 44.1279 35.0699 44.1639C35.0967 44.1273 35.1195 44.0885 35.1381 44.048ZM34.4563 44.5543H34.5108H34.4768H34.4563ZM33.3927 44.1761C33.3648 44.1401 33.3419 44.1012 33.3246 44.0602C33.3344 44.0998 33.3481 44.1386 33.3655 44.1761H33.3927ZM12.3467 12.4073C12.3467 12.0298 12.5138 11.6676 12.8115 11.4001C13.1092 11.1326 13.5133 10.9815 13.9352 10.9799H27.4C28.9352 10.9831 30.4064 11.5306 31.4913 12.5025C32.5762 13.4743 33.1864 14.7913 33.1882 16.1649V41.9923L32.1656 41.3823C32.1209 41.3534 32.0729 41.3289 32.0224 41.3091C31.9747 41.2876 31.9244 41.2713 31.8724 41.2603C31.8272 41.254 31.7812 41.254 31.7361 41.2603C31.6886 41.2543 31.6404 41.2543 31.5929 41.2603H13.2875C13.038 41.2603 12.7987 41.1716 12.6223 41.0137C12.4458 40.8559 12.3467 40.6418 12.3467 40.4185V12.4073ZM7.49934 16.7383C7.49934 15.9758 8.48108 15.3353 9.6469 15.3353H10.2946V40.4063C10.2946 41.1149 10.6092 41.7945 11.1692 42.2956C11.7292 42.7966 12.4887 43.0781 13.2807 43.0781H31.2929L33.1882 44.17V46.1708L31.6133 45.4327L31.5179 45.3839C31.4443 45.3496 31.3665 45.323 31.2861 45.3046H31.1634C31.1228 45.2986 31.0813 45.2986 31.0407 45.3046H8.86287C8.1402 45.3046 7.49934 44.9203 7.49934 44.4872V16.7383ZM65.7425 48.7145C65.7425 49.0622 65.0607 49.5685 63.9699 49.5685H38.4105C38.3837 49.5626 38.3556 49.5626 38.3287 49.5685H38.2401L38.0833 49.6051L37.9401 49.66C37.891 49.6785 37.8451 49.7031 37.8038 49.7332C37.7605 49.7586 37.7214 49.7894 37.6879 49.8247C37.6526 49.855 37.6227 49.89 37.5992 49.9284C37.5669 49.9684 37.5395 50.0113 37.5174 50.0565C37.5121 50.0682 37.5121 50.0814 37.5174 50.0931C37.4967 50.1294 37.4828 50.1686 37.4765 50.209L36.522 53.0638H31.9679L31.0134 50.209V50.1358C31.005 50.1104 30.9935 50.0859 30.9793 50.0626C30.9846 50.0509 30.9846 50.0377 30.9793 50.026C30.9568 49.9759 30.927 49.9288 30.8907 49.8857C30.8622 49.8381 30.8254 49.7948 30.7816 49.7576H30.7475C30.7119 49.7278 30.6731 49.7013 30.6316 49.6783C30.5918 49.6478 30.5454 49.625 30.4953 49.6112C30.4571 49.5899 30.4158 49.5735 30.3725 49.5624C30.3224 49.5438 30.2696 49.5315 30.2157 49.5258H30.1271C30.1002 49.5199 30.0722 49.5199 30.0453 49.5258H4.45868C3.37467 49.5258 2.67927 49.0195 2.67927 48.6718V20.4227C2.67927 19.7395 3.79055 18.9709 5.40633 18.9709H5.45405V44.4567C5.45405 45.9146 6.9812 47.1041 8.86287 47.1041H30.7884L33.6177 48.4278H33.6518C33.7199 48.4649 33.7933 48.4937 33.87 48.5132H33.9654H34.0063H34.17H34.3131H34.3609H34.4154C34.4674 48.5055 34.5179 48.4911 34.5654 48.4705C34.5809 48.4752 34.5976 48.4752 34.6131 48.4705L34.7086 48.4217L37.5651 47.0858H59.5589C61.4337 47.0858 62.9677 45.8658 62.9677 44.4384V18.9709H63.0427C64.638 18.9709 65.7697 19.7395 65.7697 20.4227L65.7425 48.7145Z" fill="white"/>
<path d="M35.1382 44.0481C35.121 44.0891 35.0981 44.128 35.0701 44.164C35.0969 44.1274 35.1197 44.0886 35.1382 44.0481Z" fill="white"/>
<path d="M33.3655 44.1762C33.3376 44.1402 33.3147 44.1013 33.2974 44.0603C33.3159 44.1008 33.3388 44.1396 33.3655 44.1762Z" fill="white"/>
<path d="M35.1382 44.0481C35.121 44.0891 35.0981 44.128 35.0701 44.164C35.0969 44.1274 35.1197 44.0886 35.1382 44.0481Z" fill="white"/>
<path d="M28.7978 18.1293H16.8874C16.6162 18.1293 16.3561 18.0329 16.1643 17.8613C15.9725 17.6897 15.8647 17.457 15.8647 17.2143C15.8647 16.9716 15.9725 16.7389 16.1643 16.5673C16.3561 16.3957 16.6162 16.2993 16.8874 16.2993H28.7978C29.069 16.2993 29.3292 16.3957 29.5209 16.5673C29.7127 16.7389 29.8205 16.9716 29.8205 17.2143C29.8205 17.457 29.7127 17.6897 29.5209 17.8613C29.3292 18.0329 29.069 18.1293 28.7978 18.1293Z" fill="white"/>
<path d="M28.7978 22.2223H16.8874C16.6162 22.2223 16.3561 22.1259 16.1643 21.9543C15.9725 21.7827 15.8647 21.55 15.8647 21.3073C15.8647 21.0647 15.9725 20.8319 16.1643 20.6603C16.3561 20.4887 16.6162 20.3923 16.8874 20.3923H28.7978C29.069 20.3923 29.3292 20.4887 29.5209 20.6603C29.7127 20.8319 29.8205 21.0647 29.8205 21.3073C29.8205 21.55 29.7127 21.7827 29.5209 21.9543C29.3292 22.1259 29.069 22.2223 28.7978 22.2223Z" fill="white"/>
<path d="M28.7978 26.3215H16.8874C16.6162 26.3215 16.3561 26.2251 16.1643 26.0535C15.9725 25.8819 15.8647 25.6491 15.8647 25.4065C15.8647 25.1638 15.9725 24.931 16.1643 24.7595C16.3561 24.5879 16.6162 24.4915 16.8874 24.4915H28.7978C29.069 24.4915 29.3292 24.5879 29.5209 24.7595C29.7127 24.931 29.8205 25.1638 29.8205 25.4065C29.8205 25.6491 29.7127 25.8819 29.5209 26.0535C29.3292 26.2251 29.069 26.3215 28.7978 26.3215Z" fill="white"/>
<path d="M28.7978 35.935H16.8874C16.6162 35.935 16.3561 35.8386 16.1643 35.667C15.9725 35.4954 15.8647 35.2627 15.8647 35.02V29.53C15.8647 29.2873 15.9725 29.0546 16.1643 28.883C16.3561 28.7114 16.6162 28.615 16.8874 28.615H28.7978C29.069 28.615 29.3292 28.7114 29.5209 28.883C29.7127 29.0546 29.8205 29.2873 29.8205 29.53V35.02C29.8205 35.2627 29.7127 35.4954 29.5209 35.667C29.3292 35.8386 29.069 35.935 28.7978 35.935ZM17.8896 34.105H27.7752V30.445H17.91L17.8896 34.105Z" fill="white"/>
<path d="M51.6096 18.1293H39.6992C39.4279 18.1293 39.1678 18.0329 38.976 17.8613C38.7843 17.6897 38.6765 17.457 38.6765 17.2143C38.6765 16.9716 38.7843 16.7389 38.976 16.5673C39.1678 16.3957 39.4279 16.2993 39.6992 16.2993H51.6096C51.8808 16.2993 52.1409 16.3957 52.3327 16.5673C52.5245 16.7389 52.6322 16.9716 52.6322 17.2143C52.6322 17.457 52.5245 17.6897 52.3327 17.8613C52.1409 18.0329 51.8808 18.1293 51.6096 18.1293Z" fill="white"/>
<path d="M51.6096 22.2223H39.6992C39.4279 22.2223 39.1678 22.1259 38.976 21.9543C38.7843 21.7827 38.6765 21.55 38.6765 21.3073C38.6765 21.0647 38.7843 20.8319 38.976 20.6603C39.1678 20.4887 39.4279 20.3923 39.6992 20.3923H51.6096C51.8808 20.3923 52.1409 20.4887 52.3327 20.6603C52.5245 20.8319 52.6322 21.0647 52.6322 21.3073C52.6322 21.55 52.5245 21.7827 52.3327 21.9543C52.1409 22.1259 51.8808 22.2223 51.6096 22.2223Z" fill="white"/>
<path d="M51.6096 26.3215H39.6992C39.4279 26.3215 39.1678 26.2251 38.976 26.0535C38.7843 25.8819 38.6765 25.6491 38.6765 25.4065C38.6765 25.1638 38.7843 24.931 38.976 24.7595C39.1678 24.5879 39.4279 24.4915 39.6992 24.4915H51.6096C51.8808 24.4915 52.1409 24.5879 52.3327 24.7595C52.5245 24.931 52.6322 25.1638 52.6322 25.4065C52.6322 25.6491 52.5245 25.8819 52.3327 26.0535C52.1409 26.2251 51.8808 26.3215 51.6096 26.3215Z" fill="white"/>
<path d="M51.6096 35.935H39.6992C39.4279 35.935 39.1678 35.8386 38.976 35.667C38.7843 35.4954 38.6765 35.2627 38.6765 35.02V29.53C38.6765 29.2873 38.7843 29.0546 38.976 28.883C39.1678 28.7114 39.4279 28.615 39.6992 28.615H51.6096C51.8808 28.615 52.1409 28.7114 52.3327 28.883C52.5245 29.0546 52.6322 29.2873 52.6322 29.53V35.02C52.6322 35.2627 52.5245 35.4954 52.3327 35.667C52.1409 35.8386 51.8808 35.935 51.6096 35.935ZM40.7014 34.105H50.5869V30.445H40.7218L40.7014 34.105Z" fill="white"/>
<path d="M37.4494 50.1846C37.4286 50.2209 37.4148 50.2601 37.4084 50.3005V50.2273L37.4494 50.1846Z" fill="white"/>
</svg>
