<svg width="43" height="43" viewBox="0 0 43 43" fill="none" xmlns="http://www.w3.org/2000/svg">
<path d="M21.5001 25.0833C26.4476 25.0833 30.4584 20.2703 30.4584 14.3333C30.4584 8.39619 26.4476 3.58325 21.5001 3.58325C16.5525 3.58325 12.5417 8.39619 12.5417 14.3333C12.5417 20.2703 16.5525 25.0833 21.5001 25.0833Z" fill="white"/>
<path d="M39.0583 34.2208C37.4458 30.9958 34.4 28.3083 30.4583 26.6958C29.3833 26.3374 28.1292 26.3374 27.2333 26.8749C25.4417 27.9499 23.65 28.4874 21.5 28.4874C19.35 28.4874 17.5583 27.9499 15.7667 26.8749C14.8708 26.5166 13.6167 26.3374 12.5417 26.8749C8.59998 28.4874 5.55415 31.1749 3.94165 34.3999C2.68748 36.7291 4.65831 39.4166 7.34582 39.4166H35.6542C38.3417 39.4166 40.3125 36.7291 39.0583 34.2208Z" fill="white"/>
</svg>
